<?xml version="1.0" encoding="utf-8"?>
<svg xmlns="http://www.w3.org/2000/svg" fill="none" height="25" viewBox="0 0 24 25" width="24">
<g opacity="0.8">
<path d="M18.2001 7.70803C17.0503 6.80213 15.6482 6.27474 14.1865 6.19843L13.988 6.43843C15.2929 6.79643 16.5103 7.41862 17.5648 8.26643C15.9336 7.38281 14.1207 6.88707 12.2668 6.8177C10.4129 6.74833 8.56796 7.10719 6.87525 7.86643C6.35845 8.10643 6.04085 8.26643 6.04085 8.26643C7.15132 7.38082 8.43859 6.74332 9.81605 6.39683L9.65605 6.23683C8.19423 6.31337 6.79206 6.84104 5.64245 7.74723C4.32921 10.3365 3.62257 13.1907 3.57605 16.0936C4.071 16.7869 4.72814 17.3485 5.4901 17.7293C6.25206 18.1102 7.09566 18.2987 7.94725 18.2784C7.94725 18.2784 8.46405 17.6424 8.90085 17.0864C7.89949 16.8343 7.01552 16.245 6.39765 15.4176C6.58069 15.5611 6.7809 15.6812 6.99365 15.7752C8.35472 16.5125 9.86147 16.9411 11.4068 17.0304C12.9522 17.1197 14.4983 16.8676 15.9352 16.292C16.5052 16.0696 17.0512 15.7901 17.5648 15.4576C16.937 16.319 16.02 16.9256 14.9817 17.1664C15.4185 17.7264 15.9352 18.3192 15.9352 18.3192C16.7869 18.3394 17.6306 18.1507 18.3925 17.7698C19.1545 17.3888 19.8116 16.8271 20.3064 16.1336C20.2428 13.203 19.523 10.3238 18.2001 7.70803ZM9.25605 14.7024C8.85173 14.6825 8.47131 14.5049 8.19642 14.2077C7.92154 13.9105 7.77407 13.5175 7.78565 13.1128C7.76923 12.9097 7.79505 12.7055 7.86149 12.5128C7.92794 12.3202 8.03356 12.1435 8.1717 11.9937C8.30984 11.844 8.47751 11.7244 8.66414 11.6427C8.85076 11.5609 9.0523 11.5187 9.25605 11.5187C9.4598 11.5187 9.66133 11.5609 9.84796 11.6427C10.0346 11.7244 10.2023 11.844 10.3404 11.9937C10.4785 12.1435 10.5842 12.3202 10.6506 12.5128C10.717 12.7055 10.7429 12.9097 10.7264 13.1128C10.7312 13.5156 10.5814 13.9049 10.3079 14.2005C10.0344 14.4962 9.65796 14.6758 9.25605 14.7024ZM14.4616 14.7024C14.0573 14.6825 13.6769 14.5049 13.402 14.2077C13.1271 13.9105 12.9797 13.5175 12.9912 13.1128C13.0135 12.8268 13.1187 12.5534 13.2939 12.3263C13.4691 12.0991 13.7068 11.9279 13.9778 11.8337C14.2488 11.7396 14.5414 11.7265 14.8198 11.7961C15.0981 11.8656 15.3501 12.0149 15.5449 12.2255C15.7398 12.4361 15.8689 12.699 15.9167 12.9819C15.9644 13.2648 15.9286 13.5555 15.8136 13.8183C15.6986 14.0812 15.5095 14.3049 15.2694 14.4619C15.0293 14.6189 14.7486 14.7025 14.4616 14.7024Z" fill="#FDFDFD"/>
</g>
</svg>