<?xml version="1.0" encoding="utf-8"?>
<svg xmlns="http://www.w3.org/2000/svg" fill="none" height="25" viewBox="0 0 24 25" width="24">
<g opacity="0.8">
<path d="M14.8096 13.7145L15.2384 10.9022H12.556V9.07756C12.5371 8.86751 12.5655 8.65588 12.6389 8.45835C12.7124 8.26082 12.8291 8.08245 12.9803 7.93644C13.1316 7.79043 13.3136 7.68053 13.5128 7.61487C13.712 7.54921 13.9234 7.52948 14.1312 7.55713H15.3512V5.1626C14.6351 5.04627 13.9116 4.98279 13.1864 4.97266C10.9768 4.97266 9.53357 6.32003 9.53357 8.7556V10.899H7.07837V13.7113H9.53357V20.5109C10.535 20.6681 11.5545 20.6681 12.556 20.5109V13.7113L14.8096 13.7145Z" fill="white"/>
</g>
</svg>