<?xml version="1.0" encoding="utf-8"?>
<svg xmlns="http://www.w3.org/2000/svg" fill="none" height="25" viewBox="0 0 24 25" width="24">
<g opacity="0.8">
<path d="M15.8113 19.2664H8.18886C7.35354 19.2639 6.55317 18.9309 5.96258 18.3401C5.37199 17.7494 5.03919 16.949 5.03687 16.1136V8.46803C5.03876 7.63243 5.37138 6.83156 5.96202 6.24048C6.55265 5.64939 7.35327 5.31616 8.18886 5.31363H15.8105C16.6461 5.31616 17.4467 5.64939 18.0373 6.24048C18.6279 6.83156 18.9606 7.63243 18.9625 8.46803V16.0952C18.9642 16.9333 18.6334 17.7379 18.0426 18.3324C17.4518 18.9269 16.6494 19.2628 15.8113 19.2664ZM8.18886 6.69923C7.72079 6.70238 7.2728 6.88977 6.94189 7.22083C6.61099 7.55188 6.4238 7.99996 6.42086 8.46803V16.0952C6.42108 16.5641 6.60739 17.0138 6.93889 17.3454C7.27038 17.6771 7.71995 17.8636 8.18886 17.864H15.8105C16.2785 17.8609 16.7265 17.6735 17.0574 17.3424C17.3883 17.0114 17.5755 16.5633 17.5785 16.0952V8.46803C17.5755 7.99996 17.3883 7.55188 17.0574 7.22083C16.7265 6.88977 16.2785 6.70238 15.8105 6.69923H8.18886ZM11.9913 15.9288C11.2781 15.9298 10.5807 15.7192 9.98724 15.3236C9.3938 14.9281 8.93102 14.3655 8.65744 13.7069C8.38387 13.0483 8.3118 12.3233 8.45035 11.6237C8.58889 10.9241 8.93184 10.2814 9.43579 9.77675C9.93974 9.27213 10.582 8.92833 11.2814 8.78885C11.9808 8.64937 12.7059 8.72048 13.3649 8.99317C14.0238 9.26587 14.5871 9.7279 14.9834 10.3208C15.3797 10.9137 15.5913 11.6109 15.5913 12.324C15.5896 13.2785 15.21 14.1935 14.5355 14.8689C13.861 15.5443 12.9466 15.9251 11.9921 15.928L11.9913 15.9288ZM11.9913 10.104C11.5521 10.1037 11.1227 10.2336 10.7575 10.4774C10.3922 10.7211 10.1074 11.0677 9.93911 11.4734C9.77084 11.879 9.72665 12.3254 9.81213 12.7561C9.89761 13.1869 10.1089 13.5826 10.4193 13.8932C10.7297 14.2039 11.1253 14.4155 11.556 14.5013C11.9867 14.587 12.4331 14.5432 12.8389 14.3752C13.2446 14.2072 13.5914 13.9227 13.8354 13.5576C14.0794 13.1925 14.2097 12.7632 14.2097 12.324C14.2076 11.7362 13.9733 11.1731 13.558 10.7571C13.1427 10.3412 12.5799 10.1062 11.9921 10.1032L11.9913 10.104ZM15.7441 7.83443C15.5012 7.83673 15.269 7.93439 15.0975 8.10635C14.926 8.2783 14.8289 8.51077 14.8273 8.75363C14.8269 8.87422 14.8505 8.99368 14.8965 9.10515C14.9425 9.21663 15.01 9.31791 15.0953 9.40318C15.1806 9.48845 15.2819 9.55603 15.3933 9.60203C15.5048 9.64803 15.6243 9.67155 15.7449 9.67123C15.9874 9.66893 16.2194 9.57149 16.3909 9.39988C16.5623 9.22827 16.6596 8.99621 16.6617 8.75363C16.6574 8.51138 16.5594 8.28023 16.3883 8.10869C16.2172 7.93714 15.9863 7.83936 15.7441 7.83443Z" fill="white"/>
</g>
</svg>