<?xml version="1.0" encoding="utf-8"?>
<svg xmlns="http://www.w3.org/2000/svg" fill="none" height="25" viewBox="0 0 24 25" width="24">
<g opacity="0.8">
<path d="M18.7193 8.56403L14.3993 6.40402C14.3798 6.39457 14.3585 6.38939 14.3369 6.38882H14.3321C14.3057 6.38896 14.2798 6.39561 14.2566 6.40817C14.2335 6.42073 14.2138 6.43881 14.1993 6.46082L11.5369 10.7872L14.5105 15.6168L18.7625 8.70802C18.7698 8.69589 18.7744 8.68237 18.7762 8.66833C18.778 8.65429 18.7768 8.64003 18.7727 8.62647C18.7686 8.61291 18.7618 8.60036 18.7526 8.5896C18.7434 8.57885 18.732 8.57014 18.7193 8.56403Z" fill="white" fill-opacity="0.9"/>
<path d="M10.1248 9.26645V13.9288L14.2696 16L10.1248 9.26645Z" fill="white" fill-opacity="0.9"/>
<path d="M14.6353 16.1792L18.4409 18.0816C18.4794 18.1095 18.5254 18.1254 18.5729 18.1271C18.6205 18.1289 18.6675 18.1164 18.708 18.0914C18.7484 18.0663 18.7805 18.0298 18.8002 17.9865C18.8199 17.9432 18.8262 17.895 18.8185 17.848V9.38162L14.6353 16.1792Z" fill="white" fill-opacity="0.9"/>
<path d="M9.67118 8.58563L5.68478 6.59283L5.43278 6.46643C5.40237 6.4504 5.36874 6.44138 5.33438 6.44003C5.31369 6.43958 5.29315 6.44381 5.27431 6.4524C5.25548 6.46099 5.23882 6.47371 5.22558 6.48963C5.19688 6.52781 5.18219 6.5747 5.18398 6.62243V15.72C5.18857 15.8036 5.21404 15.8846 5.25807 15.9558C5.30209 16.0269 5.36327 16.0859 5.43598 16.1272L9.35598 18.0856C9.40319 18.1105 9.45546 18.1242 9.50878 18.1256C9.64078 18.1256 9.73278 18.024 9.73278 17.852V8.67683C9.73256 8.65727 9.72661 8.63821 9.71566 8.622C9.70471 8.60579 9.68925 8.59314 9.67118 8.58563Z" fill="white" fill-opacity="0.9"/>
</g>
</svg>