<?xml version="1.0" encoding="utf-8"?>
<svg xmlns="http://www.w3.org/2000/svg" fill="none" height="25" viewBox="0 0 24 25" width="24">
<g opacity="0.8">
<path d="M9.45193 17.6656C9.05193 17.6656 9.12313 17.52 8.98633 17.152L7.82153 13.412L16.7879 8.22565" fill="#C8DAEA"/>
<path d="M9.45117 17.6632C9.56884 17.6621 9.68477 17.6348 9.79051 17.5831C9.89625 17.5315 9.98913 17.4569 10.0624 17.3648L11.6912 15.8184L9.65757 14.6224" fill="#A9C9DD"/>
<path d="M9.6591 14.624L14.5871 18.1736C15.1471 18.476 15.5551 18.3192 15.6951 17.6648L17.7007 8.44884C17.9063 7.64884 17.3871 7.28164 16.8487 7.52004L5.0711 11.948C4.2711 12.2624 4.2711 12.7 4.9247 12.8944L7.9471 13.8144L14.9447 9.51044C15.2751 9.31524 15.5783 9.42004 15.3295 9.63524" fill="url(#paint0_linear_2033_546)"/>
</g>
<defs>
<linearGradient gradientUnits="userSpaceOnUse" id="paint0_linear_2033_546" x1="13.2263" x2="15.055" y1="12.1999" y2="16.4729">
<stop stop-color="#EFF7FC"/>
<stop offset="1" stop-color="white"/>
</linearGradient>
</defs>
</svg>