<?xml version="1.0" encoding="utf-8"?>
<svg xmlns="http://www.w3.org/2000/svg" fill="none" height="25" viewBox="0 0 24 25" width="24">
<g opacity="0.8">
<path d="M9.40647 17.9672C10.4922 17.9747 11.5686 17.7663 12.5732 17.3542C13.5777 16.9422 14.4904 16.3346 15.2581 15.5669C16.0259 14.7991 16.6334 13.8865 17.0455 12.8819C17.4576 11.8774 17.6659 10.801 17.6585 9.71522C17.6585 9.58882 17.6585 9.46242 17.6521 9.34242C18.2203 8.93062 18.7111 8.42141 19.1017 7.83842C18.5717 8.07182 18.0102 8.22574 17.4353 8.29522C18.0418 7.93327 18.4952 7.36232 18.7105 6.68962C18.1412 7.02622 17.5191 7.26424 16.8705 7.39362C16.4723 6.96999 15.9561 6.67571 15.3888 6.54895C14.8214 6.42218 14.229 6.46877 13.6885 6.68267C13.1479 6.89657 12.684 7.26792 12.357 7.74859C12.03 8.22925 11.8549 8.79707 11.8545 9.37842C11.8533 9.60144 11.8802 9.82372 11.9345 10.04C10.781 9.98266 9.6526 9.68312 8.62258 9.16087C7.59255 8.63862 6.68401 7.90537 5.95607 7.00882C5.58497 7.64724 5.47146 8.40321 5.63871 9.12246C5.80596 9.84171 6.24137 10.47 6.85607 10.8792C6.39629 10.8665 5.94642 10.7427 5.54487 10.5184V10.5544C5.54507 11.2244 5.77698 11.8737 6.20129 12.3922C6.62559 12.9107 7.21617 13.2665 7.87287 13.3992C7.62391 13.4673 7.36697 13.5017 7.10887 13.5016C6.92512 13.5017 6.74181 13.4835 6.56167 13.4472C6.74564 14.0238 7.10563 14.5282 7.59106 14.8897C8.07649 15.2512 8.66296 15.4514 9.26807 15.4624C8.24058 16.2667 6.97294 16.7031 5.66807 16.7016C5.43673 16.7027 5.20556 16.6885 4.97607 16.6592C6.29445 17.5187 7.83511 17.9744 9.40887 17.9704" fill="white"/>
</g>
</svg>