<?xml version="1.0" encoding="utf-8"?>
<svg xmlns="http://www.w3.org/2000/svg" fill="none" height="25" viewBox="0 0 24 25" width="24">
<g opacity="0.8">
<path d="M12.3952 6.65602C10.4096 6.63269 8.42446 6.7361 6.45199 6.96562C6.1319 7.05855 5.84072 7.23142 5.60587 7.46794C5.37103 7.70447 5.20024 7.99687 5.10959 8.31762C4.89606 9.52658 4.79244 10.7524 4.79999 11.98C4.79198 13.2042 4.89561 14.4266 5.10959 15.632C5.19909 15.9523 5.36965 16.2441 5.60479 16.4792C5.83993 16.7144 6.13172 16.8849 6.45199 16.9744C8.42392 17.211 10.4093 17.3179 12.3952 17.2944C14.3838 17.3178 16.3718 17.2144 18.3472 16.9848C18.6678 16.898 18.9598 16.7282 19.1938 16.4925C19.4278 16.2568 19.5955 15.9636 19.68 15.6424C19.9004 14.4377 20.0076 13.2151 20 11.9904C20.0125 10.7592 19.9053 9.5297 19.68 8.31922C19.5951 7.99926 19.4271 7.70745 19.193 7.47338C18.959 7.2393 18.6672 7.0713 18.3472 6.98642C17.1552 6.65602 12.3952 6.65602 12.3952 6.65602ZM10.884 9.69602L14.836 11.98L10.8832 14.252V9.69762L10.884 9.69602Z" fill="white" fill-opacity="0.9"/>
</g>
</svg>