<svg xmlns="http://www.w3.org/2000/svg" width="16.03" height="14.797" viewBox="0 0 16.03 14.797"><defs><style>.a,.b{fill:#fff;}.a{opacity:0.7;}</style></defs><path class="a" d="M17.864,6.75H16.323v.925a.309.309,0,0,1-.308.308H15.4a.309.309,0,0,1-.308-.308V6.75h-7.4v.925a.309.309,0,0,1-.308.308H6.766a.309.309,0,0,1-.308-.308V6.75H4.916A1.546,1.546,0,0,0,3.375,8.291V18.773a1.546,1.546,0,0,0,1.541,1.541H17.864a1.546,1.546,0,0,0,1.541-1.541V8.291A1.546,1.546,0,0,0,17.864,6.75Zm.308,11.56a.773.773,0,0,1-.771.771H5.379a.773.773,0,0,1-.771-.771V11.374a.309.309,0,0,1,.308-.308H17.864a.309.309,0,0,1,.308.308Z" transform="translate(-3.375 -5.517)"/><path class="b" d="M10.233,4.808A.309.309,0,0,0,9.925,4.5H9.308A.309.309,0,0,0,9,4.808v.925h1.233Z" transform="translate(-5.917 -4.5)"/><path class="b" d="M25.983,4.808a.309.309,0,0,0-.308-.308h-.617a.309.309,0,0,0-.308.308v.925h1.233Z" transform="translate(-13.036 -4.5)"/></svg>