<svg width="24" height="24" viewBox="0 0 24 24" fill="none" xmlns="http://www.w3.org/2000/svg">
<path fill-rule="evenodd" clip-rule="evenodd" d="M5.25 2.25C4.45435 2.25 3.69129 2.56607 3.12868 3.12868C2.56607 3.69129 2.25 4.45435 2.25 5.25V18.75C2.25 19.5457 2.56607 20.3087 3.12868 20.8713C3.69129 21.4339 4.45435 21.75 5.25 21.75H18.75C19.5457 21.75 20.3087 21.4339 20.8713 20.8713C21.4339 20.3087 21.75 19.5457 21.75 18.75V5.25C21.75 4.45435 21.4339 3.69129 20.8713 3.12868C20.3087 2.56607 19.5457 2.25 18.75 2.25H5.25ZM7.71896 8.97247C7.59534 9.15747 7.52936 9.37498 7.52936 9.59748C7.52936 9.89585 7.64789 10.182 7.85887 10.393C8.06985 10.604 8.35599 10.7225 8.65436 10.7225C8.87687 10.7225 9.09437 10.6565 9.27938 10.5329C9.46438 10.4093 9.60858 10.2336 9.69373 10.028C9.77888 9.82244 9.80115 9.59624 9.75775 9.37801C9.71434 9.15978 9.60719 8.95932 9.44986 8.80199C9.29252 8.64465 9.09207 8.53751 8.87384 8.4941C8.65561 8.45069 8.42941 8.47297 8.22384 8.55812C8.01828 8.64327 7.84258 8.78746 7.71896 8.97247ZM14.469 8.97247C14.3453 9.15747 14.2794 9.37498 14.2794 9.59748C14.2794 9.89585 14.3979 10.182 14.6089 10.393C14.8198 10.604 15.106 10.7225 15.4044 10.7225C15.6269 10.7225 15.8444 10.6565 16.0294 10.5329C16.2144 10.4093 16.3586 10.2336 16.4437 10.028C16.5289 9.82244 16.5512 9.59624 16.5077 9.37801C16.4643 9.15978 16.3572 8.95932 16.1999 8.80199C16.0425 8.64465 15.8421 8.53751 15.6238 8.4941C15.4056 8.45069 15.1794 8.47297 14.9738 8.55812C14.7683 8.64327 14.5926 8.78746 14.469 8.97247ZM14.6546 16.0194C15.4527 15.5586 16.1155 14.8957 16.5762 14.0975C16.6579 13.9273 16.6723 13.7325 16.6167 13.5521C16.5611 13.3717 16.4395 13.219 16.2761 13.1243C16.1128 13.0296 15.9198 13 15.7356 13.0414C15.5514 13.0827 15.3896 13.1921 15.2825 13.3475C14.9522 13.9178 14.4778 14.3912 13.9068 14.7203C13.3358 15.0494 12.6884 15.2227 12.0294 15.2227C11.3703 15.2227 10.7229 15.0494 10.1519 14.7203C9.58095 14.3912 9.10654 13.9178 8.77624 13.3475C8.73151 13.2542 8.66798 13.1712 8.58963 13.1037C8.51129 13.0362 8.41983 12.9856 8.321 12.9551C8.22216 12.9247 8.11809 12.915 8.01533 12.9266C7.91257 12.9383 7.81333 12.9711 7.72385 13.023C7.63438 13.0748 7.55659 13.1447 7.49539 13.228C7.43419 13.3114 7.3909 13.4065 7.36823 13.5075C7.34557 13.6084 7.34402 13.7129 7.36368 13.8144C7.38334 13.916 7.42379 14.0123 7.48249 14.0975C7.94324 14.8957 8.606 15.5586 9.40415 16.0194C10.2023 16.4803 11.1077 16.7229 12.0294 16.7229C12.951 16.7229 13.8564 16.4803 14.6546 16.0194Z" fill="url(#paint0_linear_1193_8411)"/>
<defs>
<linearGradient id="paint0_linear_1193_8411" x1="22" y1="2.25" x2="0.582134" y2="20.0433" gradientUnits="userSpaceOnUse">
<stop stop-color="#2BF9C1"/>
<stop offset="1" stop-color="#0DCEFE"/>
</linearGradient>
</defs>
</svg>
