<svg width="24" height="24" viewBox="0 0 24 24" fill="none" xmlns="http://www.w3.org/2000/svg">
<path d="M18.75 2.25C12.4831 2.25 11.3381 2.25 5.25 2.25C4.45435 2.25 3.69129 2.56607 3.12868 3.12868C2.56607 3.69129 2.25 4.45435 2.25 5.25V18.75C2.25 19.5457 2.56607 20.3087 3.12868 20.8713C3.69129 21.4339 4.45435 21.75 5.25 21.75H18.75C19.5456 21.75 20.3087 21.4339 20.8713 20.8713C21.4339 20.3087 21.75 19.5457 21.75 18.75V5.25C21.75 4.45435 21.4339 3.69129 20.8713 3.12868C20.3087 2.56607 19.5456 2.25 18.75 2.25ZM20.25 18.75C20.25 19.1478 20.092 19.5294 19.8107 19.8107C19.5294 20.092 19.1478 20.25 18.75 20.25H5.25C4.85218 20.25 4.47064 20.092 4.18934 19.8107C3.90804 19.5294 3.75 19.1478 3.75 18.75V5.25C3.75 4.85218 3.90804 4.47065 4.18934 4.18934C4.47064 3.90804 4.85218 3.75 5.25 3.75H18.75C19.1478 3.75 19.5294 3.90804 19.8107 4.18934C20.092 4.47065 20.25 4.85218 20.25 5.25V18.75Z" fill="white"/>
<path d="M7.52897 9.62866C7.52897 9.40616 7.59495 9.18865 7.71857 9.00365C7.84219 8.81864 8.01789 8.67445 8.22345 8.5893C8.42902 8.50415 8.65522 8.48187 8.87345 8.52528C9.09168 8.56869 9.29213 8.67583 9.44947 8.83317C9.6068 8.9905 9.71395 9.19096 9.75736 9.40919C9.80076 9.62741 9.77849 9.85361 9.69334 10.0592C9.60819 10.2647 9.46399 10.4404 9.27899 10.5641C9.09398 10.6877 8.87648 10.7537 8.65397 10.7537C8.3556 10.7537 8.06946 10.6351 7.85848 10.4242C7.6475 10.2132 7.52897 9.92703 7.52897 9.62866ZM14.279 9.62866C14.279 9.40616 14.345 9.18865 14.4686 9.00365C14.5922 8.81864 14.7679 8.67445 14.9735 8.5893C15.179 8.50415 15.4052 8.48187 15.6234 8.52528C15.8417 8.56869 16.0421 8.67583 16.1995 8.83317C16.3568 8.9905 16.4639 9.19096 16.5074 9.40919C16.5508 9.62741 16.5285 9.85361 16.4433 10.0592C16.3582 10.2647 16.214 10.4404 16.029 10.5641C15.844 10.6877 15.6265 10.7537 15.404 10.7537C15.1056 10.7537 14.8195 10.6351 14.6085 10.4242C14.3975 10.2132 14.279 9.92703 14.279 9.62866ZM16.5758 14.1287C16.1151 14.9269 15.4523 15.5897 14.6542 16.0506C13.856 16.5115 12.9506 16.7541 12.029 16.7541C11.1073 16.7541 10.2019 16.5115 9.40376 16.0506C8.60561 15.5897 7.94285 14.9269 7.4821 14.1287C7.4234 14.0435 7.38295 13.9471 7.36329 13.8456C7.34362 13.7441 7.34518 13.6395 7.36784 13.5386C7.39051 13.4377 7.4338 13.3426 7.495 13.2592C7.5562 13.1758 7.63398 13.106 7.72346 13.0542C7.81294 13.0023 7.91218 12.9695 8.01494 12.9578C8.1177 12.9461 8.22177 12.9558 8.32061 12.9863C8.41944 13.0168 8.5109 13.0674 8.58924 13.1349C8.66759 13.2024 8.73112 13.2854 8.77585 13.3787C9.10615 13.9489 9.58056 14.4224 10.1515 14.7515C10.7225 15.0806 11.3699 15.2539 12.029 15.2539C12.688 15.2539 13.3355 15.0806 13.9064 14.7515C14.4774 14.4224 14.9518 13.9489 15.2821 13.3787C15.3892 13.2232 15.551 13.1139 15.7352 13.0725C15.9194 13.0312 16.1124 13.0608 16.2758 13.1555C16.4391 13.2501 16.5607 13.4029 16.6163 13.5833C16.6719 13.7637 16.6575 13.9585 16.5758 14.1287Z" fill="white"/>
</svg>
