<svg width="24" height="24" viewBox="0 0 24 24" fill="none" xmlns="http://www.w3.org/2000/svg">
<path d="M17.2504 10.875H14.2504C14.0515 10.875 13.8607 10.796 13.72 10.6554C13.5794 10.5147 13.5004 10.324 13.5004 10.125C13.5004 9.92614 13.5794 9.73537 13.72 9.59472C13.8607 9.45407 14.0515 9.37505 14.2504 9.37505H17.2504C17.4493 9.37505 17.64 9.45407 17.7807 9.59472C17.9213 9.73537 18.0004 9.92614 18.0004 10.125C18.0004 10.324 17.9213 10.5147 17.7807 10.6554C17.64 10.796 17.4493 10.875 17.2504 10.875ZM9.75036 9.37505H9.00036V8.62505C9.00036 8.42614 8.92135 8.23537 8.78069 8.09472C8.64004 7.95407 8.44928 7.87505 8.25036 7.87505C8.05145 7.87505 7.86069 7.95407 7.72003 8.09472C7.57938 8.23537 7.50036 8.42614 7.50036 8.62505V9.37505H6.75036C6.55145 9.37505 6.36069 9.45407 6.22003 9.59472C6.07938 9.73537 6.00036 9.92614 6.00036 10.125C6.00036 10.324 6.07938 10.5147 6.22003 10.6554C6.36069 10.796 6.55145 10.875 6.75036 10.875H7.50036V11.625C7.50036 11.824 7.57938 12.0147 7.72003 12.1554C7.86069 12.296 8.05145 12.375 8.25036 12.375C8.44928 12.375 8.64004 12.296 8.78069 12.1554C8.92135 12.0147 9.00036 11.824 9.00036 11.625V10.875H9.75036C9.94928 10.875 10.14 10.796 10.2807 10.6554C10.4213 10.5147 10.5004 10.324 10.5004 10.125C10.5004 9.92614 10.4213 9.73537 10.2807 9.59472C10.14 9.45407 9.94928 9.37505 9.75036 9.37505ZM20.466 20.9438C20.2713 20.9811 20.0736 20.9999 19.8754 21C18.9827 20.9998 18.1264 20.6458 17.4941 20.0157L17.4472 19.9688L13.641 15.7313L10.3691 15.75L6.55349 19.9688L6.51599 20.0157C5.87906 20.6446 5.0205 20.9982 4.12536 21C3.93024 21.0004 3.73556 20.9815 3.54411 20.9438C3.10714 20.868 2.68945 20.7065 2.31508 20.4687C1.9407 20.231 1.61701 19.9215 1.36261 19.5582C1.10822 19.1949 0.928139 18.7849 0.832721 18.3518C0.737303 17.9187 0.728431 17.471 0.806614 17.0344L2.33474 9.1688V9.15005C2.5623 7.84636 3.24297 6.66493 4.25667 5.81418C5.27038 4.96342 6.55197 4.49801 7.87536 4.50005L16.1254 4.47192C17.4426 4.47276 18.7178 4.93586 19.7286 5.78048C20.7394 6.6251 21.4217 7.79768 21.6566 9.0938C21.666 9.10317 21.666 9.10317 21.666 9.11255L23.1941 17.0251H23.2035C23.359 17.9076 23.1581 18.8157 22.6449 19.5504C22.1317 20.285 21.3481 20.7861 20.466 20.9438ZM16.1254 14.2219C17.2194 14.2219 18.2686 13.7873 19.0422 13.0137C19.8158 12.2402 20.2504 11.1909 20.2504 10.0969C20.2504 9.00291 19.8158 7.9537 19.0422 7.18011C18.2686 6.40652 17.2194 5.97192 16.1254 5.97192L7.87536 6.00005C6.91042 5.99749 5.97526 6.33406 5.23327 6.95096C4.49127 7.56786 3.98963 8.42586 3.81599 9.37505C3.81745 9.39125 3.81419 9.40753 3.80661 9.42192L2.27849 17.3063C2.21087 17.6971 2.26889 18.0992 2.4442 18.4549C2.61951 18.8106 2.90309 19.1016 3.25418 19.286C3.60526 19.4704 4.00577 19.5387 4.39814 19.4812C4.79051 19.4236 5.15452 19.2431 5.43786 18.9657L9.47849 14.4938C9.54977 14.4183 9.63542 14.3579 9.73042 14.316C9.82541 14.2742 9.92782 14.2517 10.0316 14.25L16.1254 14.2219ZM21.7222 17.3063L20.9066 13.0688C20.4011 13.8812 19.6967 14.5512 18.8601 15.0154C18.0234 15.4797 17.0822 15.7228 16.1254 15.7219H15.6472L18.5629 18.9657C18.8462 19.2431 19.2102 19.4236 19.6026 19.4812C19.995 19.5387 20.3955 19.4704 20.7466 19.286C21.0976 19.1016 21.3812 18.8106 21.5565 18.4549C21.7318 18.0992 21.7899 17.6971 21.7222 17.3063Z" fill="white"/>
</svg>
