<svg width="24" height="24" viewBox="0 0 24 24" fill="none" xmlns="http://www.w3.org/2000/svg">
<path d="M23.2035 17.0344H23.1941L21.666 9.11255C21.666 9.10317 21.666 9.10317 21.6566 9.0938C21.4217 7.79768 20.7394 6.6251 19.7286 5.78048C18.7178 4.93586 17.4426 4.47276 16.1254 4.47192L7.87536 4.50005C6.55197 4.49801 5.27038 4.96342 4.25667 5.81418C3.24297 6.66493 2.5623 7.84636 2.33474 9.15005V9.1688L0.806614 17.025C0.728431 17.4616 0.737303 17.9093 0.832721 18.3424C0.928139 18.7756 1.10822 19.1856 1.36261 19.5489C1.61701 19.9122 1.9407 20.2216 2.31507 20.4594C2.68945 20.6972 3.10714 20.8586 3.54411 20.9344C3.73556 20.9722 3.93024 20.991 4.12536 20.9907C5.0205 20.9888 5.87906 20.6353 6.51599 20.0063L6.55349 19.9594L10.3691 15.7407L13.641 15.7219L17.4472 19.9688L17.4941 20.0157C18.1264 20.6458 18.9827 20.9998 19.8754 21C20.0736 20.9999 20.2713 20.9811 20.466 20.9438C21.3462 20.786 22.1282 20.2863 22.6411 19.5538C23.1541 18.8213 23.3562 17.9155 23.2035 17.0344ZM9.75036 10.875H9.00036V11.625C9.00036 11.824 8.92135 12.0147 8.78069 12.1554C8.64004 12.296 8.44928 12.375 8.25036 12.375C8.05145 12.375 7.86069 12.296 7.72003 12.1554C7.57938 12.0147 7.50036 11.824 7.50036 11.625V10.875H6.75036C6.55145 10.875 6.36069 10.796 6.22003 10.6554C6.07938 10.5147 6.00036 10.324 6.00036 10.125C6.00036 9.92614 6.07938 9.73537 6.22003 9.59472C6.36069 9.45407 6.55145 9.37505 6.75036 9.37505H7.50036V8.62505C7.50036 8.42614 7.57938 8.23537 7.72003 8.09472C7.86069 7.95407 8.05145 7.87505 8.25036 7.87505C8.44928 7.87505 8.64004 7.95407 8.78069 8.09472C8.92135 8.23537 9.00036 8.42614 9.00036 8.62505V9.37505H9.75036C9.94928 9.37505 10.14 9.45407 10.2807 9.59472C10.4213 9.73537 10.5004 9.92614 10.5004 10.125C10.5004 10.324 10.4213 10.5147 10.2807 10.6554C10.14 10.796 9.94928 10.875 9.75036 10.875ZM13.5004 10.125C13.5004 9.92614 13.5794 9.73537 13.72 9.59472C13.8607 9.45407 14.0515 9.37505 14.2504 9.37505H17.2504C17.4493 9.37505 17.64 9.45407 17.7807 9.59472C17.9213 9.73537 18.0004 9.92614 18.0004 10.125C18.0004 10.324 17.9213 10.5147 17.7807 10.6554C17.64 10.796 17.4493 10.875 17.2504 10.875H14.2504C14.0515 10.875 13.8607 10.796 13.72 10.6554C13.5794 10.5147 13.5004 10.324 13.5004 10.125ZM20.2035 19.4719C19.9095 19.5235 19.6074 19.5045 19.3222 19.4165C19.0369 19.3285 18.7767 19.174 18.5629 18.9657L15.6472 15.7313H16.1254C17.0822 15.7322 18.0234 15.4891 18.8601 15.0248C19.6967 14.5605 20.4011 13.8905 20.9066 13.0782L21.7222 17.3157C21.804 17.8027 21.6904 18.3022 21.4061 18.706C21.1217 19.1097 20.6896 19.3849 20.2035 19.4719Z" fill="url(#paint0_linear_1056_955)"/>
<defs>
<linearGradient id="paint0_linear_1056_955" x1="23.0002" y1="4.00006" x2="1.00024" y2="21.0001" gradientUnits="userSpaceOnUse">
<stop stop-color="#DD2AFD"/>
<stop offset="1" stop-color="#6929FF"/>
</linearGradient>
</defs>
</svg>
