<svg width="24" height="24" viewBox="0 0 24 24" fill="none" xmlns="http://www.w3.org/2000/svg">
<path d="M21.75 8.98125V8.94375C21.746 8.92832 21.7428 8.91267 21.7406 8.89688V8.86875C21.7312 8.85 21.7312 8.83125 21.7219 8.8125V8.79375L20.3812 4.0875C20.2889 3.77548 20.0987 3.50138 19.8388 3.30559C19.5788 3.1098 19.2629 3.00268 18.9375 3H5.0625C4.7371 3.00268 4.42116 3.1098 4.16123 3.30559C3.90131 3.50138 3.71114 3.77548 3.61875 4.0875L2.27812 8.79375V8.8125C2.26875 8.83125 2.26875 8.85 2.25938 8.86875V8.89688C2.25718 8.91267 2.25405 8.92832 2.25 8.94375V10.5C2.25 11.0822 2.38554 11.6563 2.6459 12.1771C2.90625 12.6978 3.28426 13.1507 3.75 13.5V19.5C3.75 19.8978 3.90804 20.2794 4.18934 20.5607C4.47064 20.842 4.85218 21 5.25 21H18.75C19.1478 21 19.5294 20.842 19.8107 20.5607C20.092 20.2794 20.25 19.8978 20.25 19.5V13.5C20.7157 13.1507 21.0937 12.6978 21.3541 12.1771C21.6145 11.6563 21.75 11.0822 21.75 10.5V8.98125ZM5.0625 4.5H18.9375L20.0062 8.25H3.99375L5.0625 4.5ZM9.75 9.75H14.25V10.5C14.25 11.0967 14.0129 11.669 13.591 12.091C13.169 12.5129 12.5967 12.75 12 12.75C11.4033 12.75 10.831 12.5129 10.409 12.091C9.98705 11.669 9.75 11.0967 9.75 10.5V9.75ZM8.25 9.75V10.5C8.25034 10.887 8.15087 11.2675 7.96121 11.6048C7.77154 11.9421 7.49809 12.2248 7.16727 12.4255C6.83645 12.6263 6.45945 12.7383 6.07268 12.7508C5.68592 12.7633 5.30247 12.6758 4.95938 12.4969C4.90752 12.4558 4.85085 12.4212 4.79062 12.3937C4.47158 12.1914 4.20888 11.9117 4.02694 11.5806C3.845 11.2495 3.74974 10.8778 3.75 10.5V9.75H8.25ZM18.75 19.5H5.25V14.175C5.49708 14.2236 5.74819 14.2487 6 14.25C6.58217 14.25 7.15634 14.1145 7.67705 13.8541C8.19776 13.5937 8.6507 13.2157 9 12.75C9.3493 13.2157 9.80224 13.5937 10.3229 13.8541C10.8437 14.1145 11.4178 14.25 12 14.25C12.5822 14.25 13.1563 14.1145 13.6771 13.8541C14.1978 13.5937 14.6507 13.2157 15 12.75C15.3493 13.2157 15.8022 13.5937 16.3229 13.8541C16.8437 14.1145 17.4178 14.25 18 14.25C18.2518 14.2487 18.5029 14.2236 18.75 14.175V19.5ZM19.2094 12.3937C19.1491 12.4212 19.0925 12.4558 19.0406 12.4969C18.6975 12.6758 18.3141 12.7633 17.9273 12.7508C17.5406 12.7383 17.1635 12.6263 16.8327 12.4255C16.5019 12.2248 16.2285 11.9421 16.0388 11.6048C15.8491 11.2675 15.7497 10.887 15.75 10.5V9.75H20.25V10.5C20.2503 10.8778 20.155 11.2495 19.9731 11.5806C19.7911 11.9117 19.5284 12.1914 19.2094 12.3937Z" fill="white"/>
</svg>
