<svg width="24" height="24" viewBox="0 0 24 24" fill="none" xmlns="http://www.w3.org/2000/svg">
<path d="M22.5001 11.25C22.5001 10.0565 22.026 8.91193 21.1821 8.06802C20.3382 7.2241 19.1936 6.75 18.0001 6.75H14.2501C14.2033 6.75 9.33763 6.68437 4.71575 2.80312C4.49667 2.61823 4.22891 2.50043 3.94457 2.46385C3.66024 2.42727 3.37138 2.47345 3.11263 2.59687C2.85238 2.71521 2.63222 2.90678 2.47905 3.14819C2.32589 3.38959 2.24634 3.67038 2.25013 3.95625V18.5437C2.24634 18.8296 2.32589 19.1104 2.47905 19.3518C2.63222 19.5932 2.85238 19.7848 3.11263 19.9031C3.31261 19.9951 3.53001 20.043 3.75013 20.0437C4.10291 20.046 4.44507 19.9231 4.71575 19.6969C8.26888 16.7156 11.9533 15.9844 13.5001 15.8062V19.0969C13.4992 19.3436 13.5596 19.5866 13.6758 19.8042C13.7919 20.0218 13.9603 20.2072 14.1658 20.3438L15.197 21.0375C15.4001 21.166 15.6298 21.2463 15.8687 21.2723C16.1075 21.2983 16.3492 21.2693 16.5751 21.1875C16.7995 21.1003 16.9993 20.9602 17.1577 20.7789C17.3161 20.5977 17.4282 20.3809 17.4845 20.1469L18.6001 15.7125C19.6788 15.5634 20.6673 15.0298 21.3839 14.2099C22.1004 13.39 22.4968 12.3389 22.5001 11.25ZM3.75013 18.5437V3.95625C7.75325 7.3125 11.8501 8.04375 13.5001 8.20312V14.2969C11.8501 14.4562 7.75325 15.1875 3.75013 18.5437ZM16.0314 19.7812L15.0001 19.0969V15.75H17.0439L16.0314 19.7812ZM18.0001 14.25H15.0001V8.25H18.0001C18.7958 8.25 19.5588 8.56607 20.1215 9.12868C20.6841 9.69129 21.0001 10.4543 21.0001 11.25C21.0001 12.0456 20.6841 12.8087 20.1215 13.3713C19.5588 13.9339 18.7958 14.25 18.0001 14.25Z" fill="white"/>
</svg>
