<svg width="24" height="24" viewBox="0 0 24 24" fill="none" xmlns="http://www.w3.org/2000/svg">
<path d="M16.3694 7.63116C16.1211 6.28701 15.5102 5.03626 14.6027 4.01409C13.6953 2.99191 12.5257 2.23718 11.2204 1.83144C9.91512 1.4257 8.52377 1.38439 7.19672 1.71197C5.86967 2.03956 4.65737 2.72357 3.69084 3.69011C2.72431 4.65664 2.04029 5.86894 1.71271 7.19599C1.38512 8.52304 1.42643 9.91438 1.83217 11.2197C2.23791 12.5249 2.99265 13.6945 4.01482 14.602C5.037 15.5095 6.28774 16.1204 7.63189 16.3687C7.88016 17.7128 8.49105 18.9635 9.39854 19.9857C10.306 21.0079 11.4756 21.7626 12.7809 22.1684C14.0862 22.5741 15.4775 22.6154 16.8046 22.2878C18.1316 21.9603 19.3439 21.2762 20.3104 20.3097C21.277 19.3432 21.961 18.1309 22.2886 16.8038C22.6162 15.4768 22.5748 14.0854 22.1691 12.7801C21.7634 11.4749 21.0086 10.3053 19.9865 9.3978C18.9643 8.49032 17.7135 7.87943 16.3694 7.63116ZM3.00064 8.99991C3.00006 7.53829 3.53301 6.12673 4.49945 5.03023C5.46589 3.93373 6.79934 3.22771 8.24945 3.04472C9.69956 2.86173 11.1666 3.21436 12.3751 4.03639C13.5837 4.85843 14.4506 6.09334 14.8131 7.50928C12.8912 7.55682 11.0611 8.34151 9.70168 9.70094C8.34224 11.0604 7.55755 12.8905 7.51001 14.8124C6.22143 14.4786 5.07986 13.727 4.26392 12.6753C3.44798 11.6236 3.00372 10.331 3.00064 8.99991ZM15.0006 20.9999C13.6695 20.9968 12.377 20.5526 11.3252 19.7366C10.2735 18.9207 9.52195 17.7791 9.18814 16.4905C11.1101 16.443 12.9402 15.6583 14.2996 14.2989C15.659 12.9394 16.4437 11.1093 16.4913 9.18741C17.9072 9.54994 19.1421 10.4169 19.9641 11.6254C20.7862 12.8339 21.1388 14.301 20.9558 15.7511C20.7728 17.2012 20.0668 18.5347 18.9703 19.5011C17.8738 20.4675 16.4623 21.0005 15.0006 20.9999Z" fill="url(#paint0_linear_1056_987)"/>
<defs>
<linearGradient id="paint0_linear_1056_987" x1="22.7463" y1="2.08059" x2="-2.89221" y2="13.8522" gradientUnits="userSpaceOnUse">
<stop stop-color="#EB6C7D"/>
<stop offset="1" stop-color="#FF2545"/>
</linearGradient>
</defs>
</svg>
