<svg width="24" height="24" viewBox="0 0 24 24" fill="none" xmlns="http://www.w3.org/2000/svg">
<path d="M16.3694 7.63116C16.1211 6.28701 15.5102 5.03626 14.6027 4.01409C13.6953 2.99191 12.5257 2.23718 11.2204 1.83144C9.91512 1.4257 8.52377 1.38439 7.19672 1.71197C5.86967 2.03956 4.65737 2.72357 3.69084 3.69011C2.72431 4.65664 2.04029 5.86894 1.71271 7.19599C1.38512 8.52304 1.42643 9.91438 1.83217 11.2197C2.23791 12.5249 2.99265 13.6945 4.01482 14.602C5.037 15.5095 6.28774 16.1204 7.63189 16.3687C7.88016 17.7128 8.49105 18.9635 9.39854 19.9857C10.306 21.0079 11.4756 21.7626 12.7809 22.1684C14.0862 22.5741 15.4775 22.6154 16.8046 22.2878C18.1316 21.9603 19.3439 21.2762 20.3104 20.3097C21.277 19.3432 21.961 18.1309 22.2886 16.8038C22.6162 15.4768 22.5748 14.0854 22.1691 12.7801C21.7634 11.4749 21.0086 10.3053 19.9865 9.3978C18.9643 8.49032 17.7135 7.87943 16.3694 7.63116ZM12.6006 13.7905L10.21 11.3999C10.5487 10.9488 10.9495 10.5479 11.4006 10.2093L13.7913 12.5999C13.4526 13.051 13.0518 13.4519 12.6006 13.7905ZM9.44126 12.7499L11.2506 14.5593C10.5361 14.8499 9.77203 14.9995 9.00064 14.9999C9.00105 14.2285 9.15067 13.4645 9.44126 12.7499ZM14.56 11.2499L12.7506 9.44053C13.4652 9.14994 14.2292 9.00032 15.0006 8.99991C15.0002 9.7713 14.8506 10.5353 14.56 11.2499ZM3.00064 8.99991C3.00006 7.53829 3.53301 6.12673 4.49945 5.03023C5.46589 3.93373 6.79934 3.22771 8.24945 3.04472C9.69956 2.86173 11.1666 3.21436 12.3751 4.03639C13.5837 4.85843 14.4506 6.09334 14.8131 7.50928C13.5243 7.53841 12.2648 7.9001 11.1569 8.55928C11.1127 8.58191 11.0717 8.61028 11.035 8.64366C10.0662 9.24369 9.24822 10.0584 8.64439 11.0249C8.61299 11.0665 8.58478 11.1103 8.56001 11.1562C7.90083 12.2641 7.53914 13.5235 7.51001 14.8124C6.22143 14.4786 5.07986 13.727 4.26392 12.6753C3.44798 11.6236 3.00372 10.331 3.00064 8.99991ZM15.0006 20.9999C13.6695 20.9968 12.377 20.5526 11.3252 19.7366C10.2735 18.9207 9.52195 17.7791 9.18814 16.4905C10.477 16.4614 11.7365 16.0997 12.8444 15.4405C12.8886 15.4179 12.9295 15.3895 12.9663 15.3562C13.9351 14.7561 14.7531 13.9414 15.3569 12.9749C15.3883 12.9333 15.4165 12.8895 15.4413 12.8437C16.1004 11.7357 16.4621 10.4763 16.4913 9.18741C17.9072 9.54994 19.1421 10.4169 19.9641 11.6254C20.7862 12.8339 21.1388 14.301 20.9558 15.7511C20.7728 17.2012 20.0668 18.5347 18.9703 19.5011C17.8738 20.4675 16.4623 21.0005 15.0006 20.9999Z" fill="white"/>
</svg>
