<svg xmlns="http://www.w3.org/2000/svg" xmlns:xlink="http://www.w3.org/1999/xlink" width="22" height="22" viewBox="0 0 22 22"><defs><style>.a{fill:none;}.b{clip-path:url(#a);}.c{fill:#a0a4a7;}</style><clipPath id="a"><rect class="a" width="18.418" height="18.418" transform="translate(-2565 8085)"/></clipPath></defs><g transform="translate(2565 -8085)"><rect class="a" width="22" height="22" transform="translate(-2565 8085)"/><g class="b" transform="translate(1.791 1.791)"><g transform="translate(-2565 8085)"><path class="c" d="M18.4,11.245,16.234,2.576a.54.54,0,0,0-.393-.393L7.172.016A.54.54,0,0,0,6.66.158l-6.5,6.5a.54.54,0,0,0-.142.512l2.167,8.669a.54.54,0,0,0,.393.393L11.245,18.4a.54.54,0,0,0,.512-.142l6.5-6.5a.54.54,0,0,0,.142-.512Zm-8.275,1.7-3.114-.778L9.374,9.806l3.114.778ZM4.388,3.956,6.749,1.595l.778,3.114L5.167,7.07ZM9.654,8.764,8.867,5.616l3.148.787L12.8,9.551Zm2.064-3.548L8.57,4.429,7.783,1.281l3.148.787ZM5.472,8.291,7.833,5.93l.778,3.114L6.25,11.4Zm.652,4.767,3.114.778L6.876,16.2l-3.114-.778Zm7.586-2.167,3.114.778L14.462,14.03l-3.114-.778Zm.279-1.043L13.2,6.7l3.148.787.787,3.148ZM16.053,6.3,12.9,5.513l-.787-3.148,3.148.787ZM3.5,4.846,4.277,7.96,1.916,10.321,1.137,7.207Zm-1.277,6.7L4.582,9.181l.778,3.114L3,14.655Zm8.99,5.739L8.1,16.5l2.361-2.361,3.114.778Z" transform="translate(0 0)"/></g></g></g></svg>