<?xml version="1.0" encoding="utf-8"?>
<svg xmlns="http://www.w3.org/2000/svg" fill="none" height="24" viewBox="0 0 32 32" width="24">
<path d="M26.4625 16.5375L27.9875 8.175C28.0141 8.03137 28.0077 7.88358 27.9687 7.7428C27.9297 7.60203 27.8592 7.47198 27.7625 7.3625C27.6701 7.24947 27.5538 7.15834 27.4219 7.09565C27.2901 7.03297 27.146 7.0003 27 7H6.8375L6.225 3.6375C6.14039 3.17843 5.89787 2.76342 5.53946 2.46435C5.18104 2.16529 4.7293 2.00102 4.2625 2H2C1.73478 2 1.48043 2.10536 1.29289 2.29289C1.10536 2.48043 1 2.73478 1 3C1 3.26522 1.10536 3.51957 1.29289 3.70711C1.48043 3.89464 1.73478 4 2 4H4.2625L7.6875 22.875C7.19918 23.3051 6.84044 23.8629 6.65156 24.4856C6.46269 25.1083 6.45117 25.7714 6.61829 26.4003C6.78542 27.0292 7.12456 27.5991 7.59765 28.0459C8.07073 28.4927 8.65902 28.7988 9.29644 28.9298C9.93387 29.0608 10.5952 29.0115 11.2061 28.7874C11.8171 28.5633 12.3534 28.1733 12.755 27.6613C13.1566 27.1492 13.4074 26.5353 13.4794 25.8886C13.5514 25.2418 13.4417 24.5878 13.1625 24H19.8375C19.5125 24.6852 19.4188 25.4574 19.5706 26.2005C19.7224 26.9435 20.1114 27.6171 20.6791 28.12C21.2468 28.6228 21.9624 28.9277 22.7184 28.9887C23.4743 29.0496 24.2296 28.8634 24.8705 28.4581C25.5115 28.0527 26.0034 27.4502 26.2723 26.7411C26.5413 26.032 26.5726 25.2547 26.3616 24.5263C26.1506 23.7978 25.7087 23.1576 25.1025 22.702C24.4962 22.2464 23.7584 22 23 22H9.5625L9.0125 19H23.5125C24.2147 18.9997 24.8945 18.753 25.4335 18.3031C25.9726 17.8531 26.3367 17.2283 26.4625 16.5375ZM11.5 25.5C11.5 25.7967 11.412 26.0867 11.2472 26.3334C11.0824 26.58 10.8481 26.7723 10.574 26.8858C10.2999 26.9993 9.99834 27.0291 9.70736 26.9712C9.41639 26.9133 9.14912 26.7704 8.93934 26.5607C8.72956 26.3509 8.5867 26.0836 8.52882 25.7926C8.47094 25.5017 8.50065 25.2001 8.61418 24.926C8.72771 24.6519 8.91997 24.4176 9.16665 24.2528C9.41332 24.088 9.70333 24 10 24C10.3978 24 10.7794 24.158 11.0607 24.4393C11.342 24.7206 11.5 25.1022 11.5 25.5ZM24.5 25.5C24.5 25.7967 24.412 26.0867 24.2472 26.3334C24.0824 26.58 23.8481 26.7723 23.574 26.8858C23.2999 26.9993 22.9983 27.0291 22.7074 26.9712C22.4164 26.9133 22.1491 26.7704 21.9393 26.5607C21.7296 26.3509 21.5867 26.0836 21.5288 25.7926C21.4709 25.5017 21.5007 25.2001 21.6142 24.926C21.7277 24.6519 21.92 24.4176 22.1666 24.2528C22.4133 24.088 22.7033 24 23 24C23.3978 24 23.7794 24.158 24.0607 24.4393C24.342 24.7206 24.5 25.1022 24.5 25.5ZM7.2 9H25.8L24.5 16.175C24.4588 16.4067 24.3372 16.6165 24.1566 16.7674C23.9759 16.9183 23.7479 17.0007 23.5125 17H8.65L7.2 9Z" fill="white"/>
</svg>